<?xml version="1.0" encoding="utf-8"?>
<!-- Generator: Adobe Illustrator 24.1.0, SVG Export Plug-In . SVG Version: 6.00 Build 0)  -->
<svg version="1.1" id="Layer_1" xmlns="http://www.w3.org/2000/svg" xmlns:xlink="http://www.w3.org/1999/xlink" x="0px" y="0px"
	 viewBox="0 0 900 675" style="enable-background:new 0 0 900 675;" xml:space="preserve">
<style type="text/css">
	.st0{fill:#FFFFFF;}
	.st1{fill:#00E000;}
	.st2{fill:none;stroke:#0000FF;stroke-width:5;stroke-miterlimit:10;}
	.st3{fill:#FF8C00;}
	.st4{fill:#7700FF;}
	.st5{fill:none;stroke:#D6BA9D;stroke-width:5;stroke-miterlimit:10;}
	.st6{fill:none;stroke:#0000FF;stroke-width:5;}
	.st7{fill:#D6BA9D;}
	.st8{fill:none;stroke:#FF0000;stroke-width:5;stroke-linejoin:bevel;stroke-miterlimit:5;}
</style>
<rect class="st0" width="900" height="675"/>
<circle class="st1" cx="693.5" cy="184" r="5"/>
<circle class="st1" cx="637.9" cy="239.1" r="5"/>
<polyline class="st2" points="186,207 256.9,206.3 341.9,184.3 430.9,181.3 506.9,159.3 564.9,149.3 630.9,169.3 680.9,228.3 
	691.9,287.8 684.9,359.3 667.9,422.3 634,465 580.9,482.3 467.9,475.3 328.9,475.3 218.9,468.3 145,490 "/>
<circle class="st3" cx="343.4" cy="152" r="5"/>
<circle class="st1" cx="343.4" cy="222" r="5"/>
<circle class="st1" cx="228" cy="345" r="5"/>
<circle class="st3" cx="400.9" cy="513.3" r="5"/>
<circle class="st3" cx="401.1" cy="443.3" r="5"/>
<circle class="st3" cx="607.8" cy="510.1" r="5"/>
<circle class="st1" cx="587.4" cy="444.4" r="5"/>
<circle class="st4" cx="266" cy="140.8" r="10"/>
<line id="tag1" class="st5" x1="423.8" y1="255.6" x2="507.3" y2="283.4"/>
<line id="tag2" class="st5" x1="700.8" y1="480.4" x2="724.1" y2="395.6"/>
<line class="st6" x1="600" y1="300" x2="600" y2="380"/>
<rect x="42" y="103.8" transform="matrix(0.8211 -0.5708 0.5708 0.8211 -59.2725 72.4887)" class="st7" width="88" height="54"/>
<rect x="457.9" y="527.1" transform="matrix(0.9962 -8.761329e-02 8.761329e-02 0.9962 -46.6188 46.1058)" class="st7" width="88" height="54"/>
<rect x="726.5" y="211.6" transform="matrix(0.9985 -5.524236e-02 5.524236e-02 0.9985 -12.9697 42.0165)" class="st7" width="54" height="88"/>
<polygon class="st8" points="116.2,368.7 119.3,385 161.8,368.2 "/>
<circle class="st1" cx="303.5" cy="330" r="5"/>
<circle class="st1" cx="374" cy="314.6" r="5"/>
</svg>
