<?xml version="1.0" encoding="utf-8"?>
<!-- Generator: Adobe Illustrator 24.1.0, SVG Export Plug-In . SVG Version: 6.00 Build 0)  -->
<svg version="1.1" id="Layer_1" xmlns="http://www.w3.org/2000/svg" xmlns:xlink="http://www.w3.org/1999/xlink" x="0px" y="0px"
	 viewBox="0 0 900 675" style="enable-background:new 0 0 900 675;" xml:space="preserve">
<rect style="fill:#FFFFFF;" width="900" height="675"/>
<circle style="fill:#00E000;" cx="683.5" cy="194" r="5"/>
<circle style="fill:#00E000;" cx="647.9" cy="229.1" r="5"/>
<polyline style="fill:none;stroke:#0000FF;stroke-width:5;stroke-miterlimit:10;" points="186,207 256.9,206.3 341.9,184.3 
	430.9,181.3 506.9,159.3 564.9,149.3 630.9,169.3 680.9,228.3 691.9,287.8 684.9,359.3 667.9,422.3 634,465 580.9,482.3 
	467.9,475.3 328.9,475.3 218.9,468.3 145,490 "/>
<circle style="fill:#FF8C00;" cx="343.4" cy="162" r="5"/>
<circle style="fill:#00E000;" cx="343.4" cy="212" r="5"/>
<circle style="fill:#FF8C00;" cx="400.9" cy="503.3" r="5"/>
<circle style="fill:#FF8C00;" cx="401.1" cy="453.3" r="5"/>
<circle style="fill:#FF8C00;" cx="607.8" cy="500.1" r="5"/>
<circle style="fill:#00E000;" cx="587.4" cy="454.4" r="5"/>
<line id="tag1" style="fill:none;stroke:#D6BA9D;stroke-width:5;stroke-miterlimit:10;" x1="423.8" y1="255.6" x2="507.3" y2="283.4"/>
<line id="tag2" style="fill:none;stroke:#D6BA9D;stroke-width:5;stroke-miterlimit:10;" x1="700.8" y1="480.4" x2="724.1" y2="395.6"/>
<rect x="183" y="272" transform="matrix(0.5141 -0.8577 0.8577 0.5141 -169.0045 333.6524)" style="fill:#D6BA9D;" width="54" height="88"/>
<rect x="457.9" y="527.1" transform="matrix(0.9962 -8.763360e-02 8.763360e-02 0.9962 -46.6227 46.1135)" style="fill:#D6BA9D;" width="88" height="54"/>
<rect x="743.2" y="247.9" transform="matrix(0.9985 -5.524988e-02 5.524988e-02 0.9985 -14.9509 42.9987)" style="fill:#D6BA9D;" width="54" height="88"/>
</svg>
